<?xml version="1.0" standalone="no"?>
<!DOCTYPE svg PUBLIC "-//W3C//DTD SVG 20010904//EN"
 "http://www.w3.org/TR/2001/REC-SVG-20010904/DTD/svg10.dtd">
<svg version="1.0" xmlns="http://www.w3.org/2000/svg"
 width="1280.000000pt" height="1280.000000pt" viewBox="0 0 1280.000000 1280.000000"
 preserveAspectRatio="xMidYMid meet">
<metadata>
Created by potrace 1.15, written by Peter Selinger 2001-2017
</metadata>
<g transform="translate(0.000000,1280.000000) scale(0.100000,-0.100000)"
fill="#000000" stroke="none">
<path d="M6170 9070 l0 -780 -2295 0 -2295 0 0 -1995 0 -1995 2295 0 2295 0 2
-849 3 -849 1550 1125 c1735 1259 2566 1862 3233 2346 368 267 451 332 440
342 -7 6 -276 184 -598 395 -322 211 -958 629 -1415 928 -456 300 -900 591
-985 647 -758 497 -2154 1414 -2187 1437 l-43 29 0 -781z"/>
</g>
</svg>
